<svg xmlns="http://www.w3.org/2000/svg" width="375" viewBox="0 0 375 375" height="375" version="1.0"><defs><clipPath id="a"><path d="M 86.777344 68 L 288 68 L 288 307 L 86.777344 307 Z M 86.777344 68"/></clipPath><clipPath id="b"><path d="M 86.777344 67.839844 L 288.132812 67.839844 L 288.132812 307.054688 L 86.777344 307.054688 Z M 86.777344 67.839844"/></clipPath><clipPath id="c"><path d="M 186 103.429688 L 190 103.429688 L 190 112 L 186 112 Z M 186 103.429688"/></clipPath><clipPath id="d"><path d="M 135.625 138 L 152 138 L 152 155 L 135.625 155 Z M 135.625 138"/></clipPath><clipPath id="e"><path d="M 223 138 L 239.746094 138 L 239.746094 155 L 223 155 Z M 223 138"/></clipPath><clipPath id="f"><path d="M 174 145 L 210 145 L 210 193.78125 L 174 193.78125 Z M 174 145"/></clipPath></defs><path transform="matrix(.146 0 0 .146 72.325 59.196)" fill="#5CE1E6" fill-rule="evenodd" d="M 790.939186 118.811596 L 796.504111 118.811596 L 820.529601 130.877762 C 836.555513 138.930791 847.150272 144.228133 852.287126 146.716278 C 857.450733 149.204423 874.948139 157.337715 904.832853 171.089399 C 934.744321 184.841083 950.181635 191.770434 951.171549 191.904205 C 952.188218 192.037976 960.107533 195.301994 974.983004 201.69626 C 989.858474 208.090526 1001.309376 212.799273 1009.308955 215.849258 C 1017.308534 218.925996 1028.893208 223.072905 1044.062977 228.343492 C 1059.205992 233.640834 1068.810837 236.95836 1072.797249 238.349581 C 1076.810416 239.740802 1081.813497 241.399566 1087.806492 243.352626 C 1093.826242 245.305686 1101.558276 247.66006 1110.97584 250.442502 C 1120.420159 253.19819 1132.432904 256.542471 1147.014076 260.421837 C 1161.622002 264.327957 1175.775103 267.779255 1189.500132 270.82924 C 1203.225162 273.905979 1212.080883 275.832284 1216.094049 276.661666 C 1220.107216 277.491048 1232.815576 279.872176 1254.27264 283.751542 C 1275.729704 287.630908 1289.160435 290.012037 1294.591587 290.841418 C 1300.049493 291.6708 1313.346452 293.757631 1334.509216 297.075158 C 1355.671981 300.419439 1366.400513 302.078203 1366.668058 302.078203 C 1366.962356 302.078203 1377.262817 304.031263 1397.56944 307.910629 C 1417.876063 311.789995 1428.09626 313.823318 1428.230032 313.95709 L 1428.444068 314.171124 L 1427.159855 376.214227 C 1426.303712 417.603051 1424.163357 471.058041 1420.738788 536.579197 C 1417.287465 602.100353 1414.585266 647.930382 1412.578683 674.042529 C 1410.572099 700.127922 1408.297972 722.494475 1405.729545 741.088678 C 1403.134364 759.682881 1400.137867 777.340685 1396.713298 793.981828 C 1393.288729 810.649726 1389.569861 827.451394 1385.556695 844.386834 C 1381.543528 861.322274 1377.985187 876.170882 1374.828163 888.959413 C 1371.671139 901.72119 1367.952271 915.472874 1363.67156 930.187711 C 1359.390849 944.902548 1356.822422 953.784959 1355.939526 956.834943 C 1355.083384 959.911682 1353.79917 963.791048 1352.086886 968.499796 C 1350.374601 973.235298 1348.368018 979.067724 1346.093891 985.997075 C 1343.793008 992.95318 1340.234667 1002.932515 1335.365359 1015.988588 C 1330.49605 1029.044662 1326.482883 1039.452065 1323.352613 1047.237551 C 1320.195589 1054.996283 1316.342949 1064.306762 1311.767939 1075.142233 C 1307.19293 1085.977704 1301.333706 1099.007023 1294.163516 1114.2837 C 1287.020079 1129.560376 1282.739368 1138.442787 1281.294628 1140.957686 C 1279.876643 1143.445831 1274.659526 1152.542276 1265.643279 1168.220266 C 1256.627031 1183.92501 1251.195879 1193.208735 1249.349823 1196.124948 C 1247.477012 1199.041161 1243.062528 1206.39858 1236.052864 1218.223958 C 1229.0432 1230.022582 1224.46819 1237.513771 1222.327835 1240.697527 C 1220.160725 1243.908037 1216.869928 1248.884327 1212.455445 1255.706661 C 1208.014207 1262.50224 1204.429112 1267.772827 1201.726913 1271.518422 C 1198.99796 1275.264017 1195.86769 1279.705222 1192.282594 1284.842038 C 1188.697499 1290.005608 1185.27293 1294.714356 1181.982134 1299.02179 C 1178.691337 1303.329224 1176.122911 1306.941048 1174.276854 1309.857261 C 1172.404043 1312.773474 1169.701844 1316.519069 1166.116749 1321.094046 C 1162.531653 1325.669022 1159.107084 1330.243999 1155.816288 1334.84573 C 1152.525491 1339.420706 1148.96715 1344.129454 1145.087756 1348.998728 C 1141.235116 1353.868001 1137.94432 1358.01491 1135.215366 1361.492962 C 1132.513168 1364.971014 1126.707453 1371.55256 1117.851732 1381.291106 C 1108.996012 1391.002899 1098.535024 1402.105912 1086.522279 1414.600147 C 1074.509534 1427.094381 1063.941529 1437.796081 1054.791509 1446.678491 C 1045.641489 1455.560902 1039.568231 1461.179295 1036.544978 1463.533668 C 1033.548481 1465.914797 1026.538817 1471.880994 1015.54274 1481.459015 C 1004.519909 1491.037037 997.804544 1496.869463 995.36989 1498.956294 C 992.935235 1501.043126 986.94224 1506.179942 977.337395 1514.366742 C 967.759304 1522.553542 961.47201 1527.824129 958.475512 1530.178503 C 955.479014 1532.559631 952.027691 1535.315319 948.175051 1538.525829 C 944.322411 1541.709585 938.944768 1546.097281 932.095631 1551.635411 C 925.219739 1557.200295 920.002622 1561.293695 916.417527 1563.915611 C 912.859186 1566.564282 909.407863 1568.918656 906.14382 1571.005487 C 902.853024 1573.092319 896.833274 1576.704142 888.111326 1581.840958 C 879.389377 1586.977774 873.663926 1590.455827 870.961727 1592.248361 C 868.232774 1594.040896 865.156013 1595.940448 861.731444 1597.866754 C 858.306875 1599.819814 854.72178 1602.040416 851.002912 1604.528562 C 847.284045 1607.043461 844.555091 1608.835996 842.842807 1609.959674 C 841.130523 1611.056598 837.411655 1613.009659 831.686204 1615.792101 C 825.987508 1618.547788 819.111616 1621.758298 811.112037 1625.370122 C 803.085704 1628.981945 797.52078 1631.336319 794.363755 1632.433244 L 789.654973 1634.118761 L 784.51812 1632.861312 C 781.066797 1632.03193 777.347929 1630.640709 773.361517 1628.687649 C 769.348351 1626.761343 762.632985 1623.417062 753.188667 1618.708314 C 743.744348 1613.972812 738.313196 1611.056598 736.89521 1609.959674 C 735.450471 1608.835996 731.811866 1606.401359 725.952643 1602.655764 C 720.09342 1598.910169 715.652182 1596.127727 712.655685 1594.335193 C 709.632432 1592.515904 703.773209 1589.064606 695.051261 1583.92779 C 686.329312 1578.790974 680.336317 1575.17915 677.04552 1573.092319 C 673.754724 1571.005487 670.3034 1568.651113 666.745059 1566.002443 C 663.159964 1563.380526 659.093289 1560.250279 654.518279 1556.638456 C 649.943269 1553.026632 643.87001 1548.10385 636.271748 1541.843356 C 628.700241 1535.609616 622.118648 1530.178503 616.553723 1525.603527 C 610.962045 1521.02855 602.828694 1514.072445 592.100162 1504.788721 C 581.37163 1495.478242 574.495738 1489.645816 571.49924 1487.291442 C 568.502743 1484.937068 561.92115 1479.372184 551.754461 1470.623544 C 541.614527 1461.874905 535.969339 1456.952123 534.818898 1455.828445 C 533.668457 1454.73152 528.611867 1449.808739 519.59562 1441.060099 C 510.579372 1432.31146 504.292078 1426.050965 500.706983 1422.30537 C 497.148642 1418.559776 489.282835 1410.239204 477.109563 1397.316902 C 464.963046 1384.394599 457.659083 1376.502096 455.224429 1373.585883 C 452.816529 1370.66967 449.231433 1366.362235 444.522651 1360.66358 C 439.787115 1354.964925 436.068247 1350.389949 433.366048 1346.911896 C 430.637095 1343.460598 427.934896 1339.848774 425.205943 1336.076425 C 422.47699 1332.33083 419.641019 1328.451464 416.617767 1324.438327 C 413.621269 1320.398435 410.91907 1316.786612 408.484416 1313.602856 C 406.049761 1310.392346 403.962915 1307.556396 402.25063 1305.068251 C 400.538346 1302.553351 398.183955 1299.289333 395.187457 1295.276195 C 392.164205 1291.236304 389.595779 1287.62448 387.455423 1284.440724 C 385.315068 1281.256969 382.452342 1277.083306 378.867247 1271.94649 C 375.308906 1266.809674 372.579952 1262.769783 370.733896 1259.853569 C 368.861085 1256.937356 365.864587 1252.36238 361.717648 1246.12864 C 357.57071 1239.868145 354.841756 1235.560711 353.557543 1233.206337 C 352.27333 1230.851963 348.688234 1224.885766 342.829011 1215.307745 C 336.969788 1205.729723 333.117148 1199.469229 331.244337 1196.553016 C 329.39828 1193.636803 324.743007 1185.664036 317.305272 1172.607963 C 309.867537 1159.551889 304.302612 1149.706326 300.583745 1143.044517 C 296.864877 1136.355955 293.574081 1130.122215 290.711355 1124.289789 C 287.84863 1118.457362 283.835463 1109.708723 278.69861 1098.04387 C 273.561757 1086.379018 270.966576 1080.41282 270.966576 1080.145278 C 270.966576 1079.850981 268.398149 1073.48347 263.261296 1060.989235 C 258.097688 1048.468247 254.111276 1038.622683 251.248551 1031.399036 C 248.385825 1024.175388 244.372659 1013.206146 239.235806 998.491309 C 234.072198 983.776472 228.935345 968.098482 223.798492 951.430585 C 218.634884 934.762688 212.909433 914.509721 206.622139 890.618176 C 200.334845 866.726632 195.893607 848.96181 193.325181 837.296958 C 190.756754 825.632105 187.171658 808.696665 182.596649 786.490639 C 178.021639 764.284612 175.31944 749.703546 174.436543 742.747441 C 173.580401 735.818091 171.734345 714.575217 168.871619 679.01882 C 166.008894 643.489177 164.162837 616.681419 163.306695 598.649055 C 162.423798 580.589937 161.433884 561.433894 160.283443 541.154174 C 159.159756 520.901207 157.581244 487.699184 155.574661 441.601612 C 153.568077 395.530795 152.578163 362.890611 152.578163 343.734569 L 152.578163 315.000505 L 155.360625 313.529022 C 157.206682 312.565869 162.290026 311.388682 170.583903 309.997461 C 178.877781 308.60624 190.328683 306.786951 204.909855 304.566348 C 219.491026 302.345745 241.67046 298.733922 271.394647 293.757631 C 301.145588 288.754587 322.46888 285.142763 335.337767 282.92216 C 348.206654 280.701558 365.22248 277.223505 386.385245 272.514758 C 407.54801 267.779255 425.84805 263.33805 441.285363 259.164387 C 456.749432 255.017479 470.04639 251.111358 481.202993 247.526289 C 492.359596 243.914465 501.081545 241.132023 507.368839 239.178963 C 513.656133 237.252657 519.675883 235.299597 525.37458 233.346537 C 531.100031 231.420231 542.550932 227.246568 559.700531 220.852302 C 576.876883 214.458037 592.956304 208.010263 607.965547 201.482226 C 622.97479 194.954189 631.001123 191.636662 631.991037 191.502891 C 632.980952 191.342366 640.204651 188.238873 653.662137 182.11215 C 667.092867 176.012181 679.266139 170.447297 690.128443 165.471007 C 700.990747 160.467962 711.719279 155.464917 722.287284 150.461873 C 732.882044 145.458828 746.04523 138.930791 761.776843 130.877762 L 785.374262 118.811596 Z M 790.939186 118.811596" stroke="#000" stroke-width="2"/><path transform="matrix(.146 0 0 .146 72.325 59.196)" fill="#5CE1E6" fill-rule="evenodd" d="M 769.348351 132.964594 L 774.913275 132.964594 L 798.938765 145.03076 C 814.964677 153.083789 825.532682 158.354376 830.69629 160.869276 C 835.833143 163.357421 853.357303 171.490713 883.242017 185.242397 C 913.12673 198.967327 928.564044 205.923431 929.580713 206.057203 C 930.570627 206.190974 938.516697 209.454992 953.392168 215.849258 C 968.267638 222.243523 979.691786 226.952271 987.718119 230.002256 C 995.717698 233.05224 1007.302372 237.225903 1022.445387 242.49649 C 1037.615156 247.793831 1047.193247 251.111358 1051.206414 252.502579 C 1055.21958 253.8938 1060.222661 255.552564 1066.215656 257.505624 C 1072.235406 259.43193 1079.940686 261.813058 1089.385004 264.568746 C 1098.829323 267.351187 1110.842068 270.695469 1125.42324 274.574835 C 1140.004412 278.454201 1154.157512 281.932253 1167.882542 284.982238 C 1181.634326 288.032222 1190.490047 289.985282 1194.503213 290.814664 C 1198.489625 291.644046 1211.22474 294.025174 1232.681804 297.90454 C 1254.138868 301.783906 1267.569599 304.13828 1273.000751 304.994416 C 1278.431903 305.823798 1291.728861 307.910629 1312.891626 311.228156 C 1334.054391 314.572437 1344.782923 316.231201 1345.077222 316.231201 C 1345.371521 316.231201 1355.671981 318.184261 1375.978604 322.063627 C 1396.285227 325.942993 1406.505424 327.949562 1406.639196 328.110087 L 1406.853232 328.297367 L 1405.569019 390.367225 C 1404.712876 431.756049 1402.572521 485.184284 1399.121198 550.732195 C 1395.696629 616.253351 1392.99443 662.08338 1390.987847 688.168773 C 1388.981264 714.28092 1386.680381 736.647472 1384.111955 755.241676 C 1381.543528 773.835879 1378.547031 791.466929 1375.095707 808.134826 C 1371.671139 824.802723 1367.952271 841.604392 1363.965859 858.539832 C 1359.952692 875.475271 1356.367597 890.32388 1353.237327 903.112411 C 1350.080303 915.874188 1346.361435 929.625872 1342.080724 944.340709 C 1337.773259 959.055546 1335.204832 967.937957 1334.34869 970.987941 C 1333.492548 974.037925 1332.208334 977.944046 1330.49605 982.652794 C 1328.783766 987.388296 1326.777182 993.220722 1324.4763 1000.150073 C 1322.202172 1007.106177 1318.617077 1017.085512 1313.747768 1030.141586 C 1308.905214 1043.19766 1304.892047 1053.605062 1301.735023 1061.390549 C 1298.604753 1069.149281 1294.752113 1078.45976 1290.177103 1089.295231 C 1285.575339 1100.103948 1279.716116 1113.160021 1272.57268 1128.436697 C 1265.429243 1143.713374 1261.121778 1152.595784 1259.703792 1155.08393 C 1258.285807 1157.598829 1253.041936 1166.695274 1244.052443 1182.373264 C 1235.036195 1198.078008 1229.605043 1207.361733 1227.732232 1210.277946 C 1225.886176 1213.194159 1221.444938 1220.551577 1214.435274 1232.350201 C 1207.425609 1244.175579 1202.8506 1251.666769 1200.710244 1254.850525 C 1198.569889 1258.03428 1195.279092 1263.037325 1190.837854 1269.859659 C 1186.423371 1276.655238 1182.838276 1281.925825 1180.136077 1285.67142 C 1177.407124 1289.417015 1174.250099 1293.85822 1170.691758 1298.995036 C 1167.106663 1304.131852 1163.682094 1308.867354 1160.391298 1313.174788 C 1157.100501 1317.482222 1154.532075 1321.094046 1152.659264 1324.010259 C 1150.813207 1326.899718 1148.084254 1330.672067 1144.525913 1335.247044 C 1140.940817 1339.82202 1137.516248 1344.396997 1134.225452 1348.998728 C 1130.934655 1353.573704 1127.34956 1358.282452 1123.49692 1363.151725 C 1119.64428 1368.020999 1116.353484 1372.167907 1113.62453 1375.64596 C 1110.922332 1379.124012 1105.116617 1385.705558 1096.260896 1395.444104 C 1087.378421 1405.155897 1076.944188 1416.25891 1064.931443 1428.753144 C 1052.918698 1441.247379 1042.350693 1451.949079 1033.173919 1460.831489 C 1024.023899 1469.7139 1017.95064 1475.332292 1014.954142 1477.686666 C 1011.957645 1480.067794 1004.947981 1486.033992 993.92515 1495.612013 C 982.929074 1505.190034 976.186954 1511.022461 973.779054 1513.109292 C 971.344399 1515.169369 965.32465 1520.306185 955.746559 1528.51974 C 946.168468 1536.70654 939.881174 1541.977127 936.857922 1544.331501 C 933.861424 1546.685875 930.436855 1549.468317 926.584215 1552.678827 C 922.704821 1555.862582 917.353932 1560.223525 910.47804 1565.788409 C 903.628903 1571.353293 898.411786 1575.446693 894.826691 1578.068609 C 891.241595 1580.71728 887.817027 1583.071654 884.52623 1585.158485 C 881.235434 1587.245317 875.242438 1590.85714 866.52049 1595.993956 C 857.798541 1601.130772 852.07309 1604.58207 849.344137 1606.401359 C 846.641938 1608.193894 843.565177 1610.066691 840.140608 1612.019751 C 836.689285 1613.972812 833.130944 1616.193414 829.412076 1618.681559 C 825.693209 1621.196459 822.964255 1622.988994 821.251971 1624.112672 C 819.539687 1625.209596 815.820819 1627.162656 810.095368 1629.918344 C 804.369917 1632.700786 797.52078 1635.911296 789.494447 1639.52312 C 781.494868 1643.108189 775.929944 1645.489317 772.772919 1646.586241 L 768.064137 1648.271759 L 762.90053 1647.014309 C 759.475961 1646.184928 755.757093 1644.793707 751.743927 1642.840646 C 747.757515 1640.887586 741.015395 1637.570059 731.597831 1632.834557 C 722.153512 1628.125809 716.72236 1625.209596 715.27762 1624.112672 C 713.859635 1622.988994 710.22103 1620.554357 704.335053 1616.808762 C 698.47583 1613.063167 694.061346 1610.280725 691.038094 1608.488191 C 688.041597 1606.668902 682.182373 1603.217603 673.460425 1598.080788 C 664.738476 1592.917217 658.718726 1589.332148 655.42793 1587.245317 C 652.137133 1585.158485 648.712564 1582.804111 645.154223 1580.155441 C 641.569128 1577.50677 637.502453 1574.403277 632.927443 1570.791453 C 628.325678 1567.17963 622.25242 1562.256848 614.680912 1555.996354 C 607.109405 1549.762614 600.527812 1544.331501 594.936133 1539.756524 C 589.371209 1535.181548 581.211103 1528.225443 570.482571 1518.941718 C 559.75404 1509.63124 552.904902 1503.798813 549.908404 1501.44444 C 546.885152 1499.063311 540.330314 1493.525182 530.163625 1484.776542 C 520.023691 1476.027903 514.351749 1471.105121 513.228062 1469.981442 C 512.077621 1468.884518 506.994277 1463.961736 497.978029 1455.213097 C 488.988536 1446.464457 482.701242 1440.203963 479.116147 1436.458368 C 475.531051 1432.712773 467.665245 1424.392202 455.518727 1411.4699 C 443.37221 1398.547597 436.068247 1390.655094 433.633593 1387.73888 C 431.198938 1384.822667 427.640597 1380.515233 422.905061 1374.816578 C 418.196279 1369.117923 414.477411 1364.542946 411.748458 1361.064894 C 409.046259 1357.586842 406.317306 1353.975018 403.615107 1350.229423 C 400.886154 1346.483828 398.023428 1342.604462 395.026931 1338.564571 C 392.030433 1334.551433 389.30148 1330.939609 386.866825 1327.755854 C 384.432171 1324.545344 382.372079 1321.709394 380.659794 1319.221248 C 378.94751 1316.706349 376.566365 1313.442331 373.569867 1309.429193 C 370.573369 1305.389302 368.004943 1301.777478 365.864587 1298.593722 C 363.697477 1295.409967 360.861506 1291.236304 357.276411 1286.099488 C 353.691315 1280.962672 350.989116 1276.92278 349.116305 1274.006567 C 347.270249 1271.090354 344.246997 1266.515377 340.100058 1260.281637 C 335.953119 1254.021143 333.25092 1249.713709 331.966707 1247.359335 C 330.682494 1245.004961 327.097398 1239.038764 321.238175 1229.460742 C 315.378952 1219.855967 311.499558 1213.622227 309.653501 1210.706014 C 307.807445 1207.7898 303.152171 1199.817034 295.714436 1186.760961 C 288.276701 1173.704887 282.685022 1163.832569 278.966154 1157.170761 C 275.247287 1150.508953 271.983245 1144.275213 269.120519 1138.442787 C 266.257794 1132.61036 262.244627 1123.861721 257.107774 1112.196868 C 251.944166 1100.532016 249.37574 1094.565818 249.37574 1094.298275 C 249.37574 1094.003979 246.807313 1087.609713 241.643706 1075.115479 C 236.506852 1062.621244 232.493686 1052.775681 229.63096 1045.552033 C 226.794989 1038.328386 222.781823 1027.359144 217.618215 1012.644307 C 212.481362 997.92947 207.344509 982.25148 202.180901 965.583583 C 197.044048 948.915685 191.318597 928.662719 185.031303 904.771174 C 178.744009 880.87963 174.302771 863.114808 171.734345 851.449956 C 169.139164 839.785103 165.580823 822.849663 161.005813 800.643636 C 156.430803 778.43761 153.70185 763.856544 152.845707 756.900439 C 151.989565 749.971088 150.143509 728.728215 147.280783 693.171817 C 144.418058 657.642175 142.545247 630.834417 141.689104 612.802053 C 140.832962 594.742935 139.843048 575.586892 138.692607 555.307171 C 137.542166 535.027451 135.963654 501.852182 133.983825 455.75461 C 131.977241 409.657039 130.960573 377.043609 130.960573 357.887567 L 130.960573 329.153503 L 133.769789 327.682019 C 135.615846 326.718866 140.69919 325.541679 148.993068 324.150458 C 157.286945 322.759238 168.711092 320.939949 183.319019 318.719346 C 197.90019 316.498743 220.05287 312.88692 249.803811 307.910629 C 279.554752 302.907585 300.851289 299.295761 313.720177 297.075158 C 326.589064 294.854556 343.60489 291.376503 364.794409 286.667755 C 385.957174 281.932253 404.257214 277.491048 419.694528 273.317385 C 435.131841 269.170476 448.4288 265.264356 459.585403 261.652532 C 470.742006 258.040709 479.463954 255.285021 485.751249 253.331961 C 492.065297 251.378901 498.058293 249.452595 503.783744 247.499535 C 509.509195 245.546474 520.933342 241.399566 538.109695 235.0053 C 555.259293 228.611035 571.365468 222.163261 586.374711 215.635224 C 601.383954 209.107187 609.383532 205.78966 610.400201 205.629135 C 611.390116 205.495363 618.613815 202.39187 632.071301 196.265147 C 645.502031 190.165179 657.648549 184.600295 668.537607 179.59725 C 679.399911 174.62096 690.128443 169.617915 700.696448 164.614871 C 711.291208 159.611826 724.42764 153.083789 740.159253 145.03076 L 763.756672 132.964594 Z M 769.348351 132.964594" stroke="#000" stroke-width="2"/><g clip-path="url(#a)"><path d="M 187.523438 68.046875 L 188.402344 68.046875 L 192.1875 69.949219 C 194.714844 71.21875 196.378906 72.050781 197.191406 72.441406 C 198.003906 72.835938 200.765625 74.117188 205.472656 76.285156 C 210.183594 78.449219 212.617188 79.542969 212.773438 79.566406 C 212.933594 79.585938 214.183594 80.101562 216.527344 81.109375 C 218.871094 82.113281 220.671875 82.859375 221.933594 83.339844 C 223.195312 83.820312 225.023438 84.476562 227.410156 85.308594 C 229.800781 86.140625 231.308594 86.664062 231.941406 86.882812 C 232.570312 87.101562 233.359375 87.367188 234.308594 87.671875 C 235.253906 87.980469 236.46875 88.351562 237.957031 88.789062 C 239.445312 89.226562 241.339844 89.75 243.636719 90.363281 C 245.933594 90.976562 248.167969 91.523438 250.328125 92.003906 C 252.492188 92.484375 253.890625 92.792969 254.519531 92.921875 C 255.152344 93.054688 257.15625 93.425781 260.539062 94.039062 C 263.917969 94.652344 266.035156 95.023438 266.894531 95.15625 C 267.75 95.285156 269.84375 95.613281 273.179688 96.140625 C 276.515625 96.664062 278.207031 96.929688 278.25 96.929688 C 278.296875 96.929688 279.917969 97.234375 283.117188 97.847656 C 286.316406 98.460938 287.929688 98.777344 287.953125 98.796875 L 287.984375 98.832031 L 287.78125 108.613281 C 287.648438 115.132812 287.308594 123.554688 286.769531 133.882812 C 286.226562 144.210938 285.800781 151.433594 285.484375 155.546875 C 285.167969 159.660156 284.808594 163.179688 284.402344 166.113281 C 283.996094 169.046875 283.523438 171.824219 282.984375 174.449219 C 282.441406 177.074219 281.855469 179.722656 281.226562 182.390625 C 280.59375 185.0625 280.03125 187.402344 279.535156 189.417969 C 279.039062 191.429688 278.453125 193.59375 277.777344 195.914062 C 277.101562 198.234375 276.695312 199.632812 276.558594 200.117188 C 276.425781 200.597656 276.222656 201.210938 275.953125 201.953125 C 275.679688 202.699219 275.367188 203.617188 275.003906 204.710938 C 274.644531 205.804688 274.082031 207.378906 273.316406 209.4375 C 272.550781 211.492188 271.917969 213.132812 271.421875 214.359375 C 270.925781 215.585938 270.316406 217.050781 269.597656 218.757812 C 268.875 220.464844 267.953125 222.519531 266.824219 224.929688 C 265.699219 227.335938 265.023438 228.734375 264.796875 229.128906 C 264.570312 229.523438 263.75 230.957031 262.328125 233.429688 C 260.910156 235.902344 260.054688 237.367188 259.761719 237.828125 C 259.46875 238.285156 258.769531 239.445312 257.664062 241.304688 C 256.5625 243.164062 255.839844 244.347656 255.5 244.851562 C 255.164062 245.355469 254.644531 246.140625 253.945312 247.214844 C 253.246094 248.285156 252.683594 249.117188 252.257812 249.707031 C 251.828125 250.296875 251.332031 251 250.769531 251.808594 C 250.207031 252.617188 249.664062 253.363281 249.148438 254.039062 C 248.628906 254.71875 248.222656 255.289062 247.929688 255.746094 C 247.636719 256.207031 247.207031 256.796875 246.644531 257.519531 C 246.082031 258.242188 245.539062 258.964844 245.023438 259.683594 C 244.503906 260.40625 243.941406 261.152344 243.332031 261.917969 C 242.722656 262.683594 242.207031 263.339844 241.777344 263.886719 C 241.347656 264.433594 240.4375 265.472656 239.039062 267.003906 C 237.640625 268.535156 235.996094 270.285156 234.105469 272.253906 C 232.210938 274.226562 230.542969 275.910156 229.101562 277.308594 C 227.660156 278.710938 226.703125 279.597656 226.226562 279.96875 C 225.753906 280.339844 224.652344 281.28125 222.914062 282.792969 C 221.179688 284.300781 220.121094 285.21875 219.738281 285.546875 C 219.355469 285.875 218.410156 286.6875 216.898438 287.976562 C 215.390625 289.269531 214.398438 290.097656 213.925781 290.472656 C 213.449219 290.84375 212.910156 291.28125 212.300781 291.785156 C 211.691406 292.289062 210.847656 292.976562 209.765625 293.851562 C 208.683594 294.726562 207.863281 295.371094 207.296875 295.789062 C 206.734375 296.203125 206.195312 296.574219 205.675781 296.902344 C 205.15625 297.230469 204.210938 297.800781 202.835938 298.609375 C 201.460938 299.421875 200.5625 299.96875 200.132812 300.25 C 199.703125 300.535156 199.21875 300.832031 198.679688 301.136719 C 198.136719 301.445312 197.574219 301.792969 196.988281 302.1875 C 196.402344 302.582031 195.976562 302.867188 195.703125 303.042969 C 195.433594 303.214844 194.847656 303.523438 193.945312 303.960938 C 193.046875 304.398438 191.964844 304.902344 190.703125 305.46875 C 189.441406 306.039062 188.5625 306.410156 188.066406 306.585938 L 187.320312 306.847656 L 186.511719 306.652344 C 185.96875 306.519531 185.382812 306.300781 184.753906 305.996094 C 184.121094 305.6875 183.0625 305.164062 181.574219 304.421875 C 180.085938 303.675781 179.230469 303.214844 179.007812 303.042969 C 178.78125 302.867188 178.207031 302.484375 177.28125 301.894531 C 176.359375 301.300781 175.660156 300.863281 175.1875 300.582031 C 174.714844 300.296875 173.789062 299.75 172.414062 298.9375 C 171.039062 298.128906 170.09375 297.558594 169.574219 297.230469 C 169.054688 296.902344 168.515625 296.53125 167.953125 296.117188 C 167.390625 295.699219 166.746094 295.207031 166.027344 294.640625 C 165.304688 294.070312 164.347656 293.292969 163.152344 292.308594 C 161.957031 291.324219 160.921875 290.472656 160.042969 289.75 C 159.164062 289.027344 157.878906 287.933594 156.1875 286.46875 C 154.5 285 153.417969 284.082031 152.945312 283.710938 C 152.472656 283.339844 151.433594 282.460938 149.835938 281.085938 C 148.234375 279.707031 147.34375 278.929688 147.164062 278.753906 C 146.984375 278.578125 146.183594 277.800781 144.765625 276.425781 C 143.34375 275.046875 142.351562 274.0625 141.789062 273.46875 C 141.226562 272.878906 139.984375 271.566406 138.070312 269.53125 C 136.15625 267.496094 135.007812 266.25 134.621094 265.789062 C 134.238281 265.332031 133.675781 264.652344 132.933594 263.753906 C 132.1875 262.859375 131.601562 262.136719 131.175781 261.589844 C 130.746094 261.042969 130.320312 260.472656 129.890625 259.882812 C 129.460938 259.292969 129.011719 258.679688 128.539062 258.042969 C 128.066406 257.410156 127.636719 256.839844 127.253906 256.335938 C 126.871094 255.835938 126.542969 255.386719 126.273438 254.992188 C 126.003906 254.597656 125.632812 254.085938 125.15625 253.449219 C 124.683594 252.816406 124.277344 252.246094 123.941406 251.742188 C 123.601562 251.238281 123.152344 250.582031 122.589844 249.773438 C 122.027344 248.964844 121.597656 248.328125 121.304688 247.871094 C 121.011719 247.410156 120.539062 246.6875 119.886719 245.703125 C 119.230469 244.71875 118.804688 244.042969 118.601562 243.667969 C 118.398438 243.296875 117.835938 242.355469 116.910156 240.847656 C 115.984375 239.335938 115.378906 238.351562 115.085938 237.894531 C 114.792969 237.433594 114.058594 236.175781 112.886719 234.117188 C 111.714844 232.0625 110.835938 230.507812 110.25 229.457031 C 109.664062 228.40625 109.148438 227.421875 108.695312 226.503906 C 108.246094 225.585938 107.613281 224.207031 106.804688 222.367188 C 105.992188 220.53125 105.585938 219.589844 105.585938 219.546875 C 105.585938 219.503906 105.179688 218.496094 104.371094 216.527344 C 103.558594 214.558594 102.925781 213.003906 102.476562 211.867188 C 102.027344 210.726562 101.394531 209 100.582031 206.679688 C 99.773438 204.359375 98.960938 201.886719 98.148438 199.261719 C 97.339844 196.636719 96.4375 193.441406 95.445312 189.679688 C 94.453125 185.914062 93.753906 183.113281 93.351562 181.277344 C 92.945312 179.4375 92.378906 176.769531 91.660156 173.269531 C 90.9375 169.765625 90.511719 167.46875 90.375 166.375 C 90.238281 165.28125 89.945312 161.933594 89.496094 156.332031 C 89.046875 150.730469 88.753906 146.507812 88.617188 143.664062 C 88.480469 140.820312 88.324219 137.800781 88.144531 134.605469 C 87.964844 131.410156 87.714844 126.179688 87.402344 118.917969 C 87.085938 111.652344 86.925781 106.511719 86.925781 103.492188 L 86.925781 98.960938 L 87.367188 98.734375 C 87.660156 98.578125 88.460938 98.394531 89.765625 98.175781 C 91.074219 97.957031 92.875 97.671875 95.175781 97.320312 C 97.472656 96.972656 100.964844 96.402344 105.652344 95.613281 C 110.339844 94.828125 113.699219 94.257812 115.726562 93.910156 C 117.753906 93.558594 120.4375 93.011719 123.773438 92.265625 C 127.109375 91.523438 129.992188 90.824219 132.425781 90.167969 C 134.859375 89.511719 136.957031 88.898438 138.714844 88.328125 C 140.472656 87.757812 141.84375 87.320312 142.835938 87.015625 C 143.828125 86.710938 144.773438 86.402344 145.675781 86.097656 C 146.578125 85.789062 148.378906 85.132812 151.085938 84.128906 C 153.789062 83.121094 156.324219 82.105469 158.691406 81.074219 C 161.054688 80.046875 162.320312 79.523438 162.476562 79.5 C 162.632812 79.476562 163.773438 78.984375 165.890625 78.023438 C 168.007812 77.058594 169.925781 76.183594 171.636719 75.398438 C 173.347656 74.609375 175.039062 73.820312 176.707031 73.035156 C 178.375 72.246094 180.449219 71.21875 182.925781 69.949219 L 186.644531 68.046875 Z M 187.523438 68.046875" fill-rule="evenodd"/></g><g clip-path="url(#b)"><path transform="matrix(.146 0 0 .146 72.325 59.196)" fill="none" d="M 789.012867 60.621104 L 795.032616 60.621104 L 820.957672 73.650423 C 838.267797 82.345554 849.66519 88.044209 855.230114 90.719634 C 860.795039 93.421814 879.71043 102.197207 911.949535 117.045816 C 944.215394 131.86767 960.883412 139.358859 961.95359 139.519385 C 963.050522 139.653156 971.611944 143.184717 987.66461 150.087313 C 1003.717276 156.963155 1016.051075 162.073217 1024.69276 165.36399 C 1033.334445 168.654762 1045.855525 173.149476 1062.20249 178.848131 C 1078.576209 184.546786 1088.903424 188.131856 1093.237644 189.630094 C 1097.54511 191.128332 1102.949507 192.94762 1109.450837 195.034452 C 1115.925412 197.148038 1124.246044 199.689691 1134.439487 202.686167 C 1144.63293 205.682643 1157.608836 209.267712 1173.340448 213.46813 C 1189.072061 217.668547 1204.375603 221.414142 1219.17081 224.704914 C 1233.992772 227.995687 1243.570863 230.109273 1247.878328 230.992163 C 1252.212548 231.901807 1265.937578 234.443461 1289.106926 238.643878 C 1312.249519 242.844295 1326.750428 245.385949 1332.636405 246.295593 C 1338.495629 247.178484 1352.83601 249.425841 1375.684305 253.037664 C 1398.5326 256.622734 1410.117274 258.442022 1410.411573 258.442022 C 1410.732626 258.442022 1421.83572 260.528854 1443.74761 264.729271 C 1465.659499 268.929688 1476.709084 271.096782 1476.869611 271.230554 L 1477.083646 271.471342 L 1475.692415 338.463982 C 1474.782764 383.116824 1472.455127 440.798985 1468.763014 511.53722 C 1465.044147 582.275455 1462.127912 631.744061 1459.960802 659.916286 C 1457.793692 688.08851 1455.332284 712.194089 1452.549821 732.28653 C 1449.767359 752.378971 1446.530072 771.401242 1442.837958 789.380098 C 1439.119091 807.358953 1435.105924 825.498334 1430.798459 843.771486 C 1426.464239 862.071393 1422.611599 878.097188 1419.213785 891.90238 C 1415.81597 905.680819 1411.802804 920.502673 1407.174285 936.394697 C 1402.545766 952.286721 1399.763304 961.864742 1398.826899 965.182269 C 1397.917248 968.473042 1396.526017 972.673459 1394.67996 977.756766 C 1392.807149 982.866828 1390.666793 989.154076 1388.17863 996.645266 C 1385.717221 1004.136456 1381.864582 1014.918418 1376.620711 1029.017907 C 1371.37684 1043.090643 1367.04262 1054.327427 1363.644805 1062.728261 C 1360.246991 1071.129096 1356.073298 1081.161939 1351.15048 1092.853546 C 1346.200908 1104.545153 1339.88686 1118.617888 1332.154825 1135.12526 C 1324.449546 1151.605877 1319.821027 1161.183898 1318.269269 1163.886078 C 1316.717511 1166.588257 1311.099078 1176.407066 1301.360461 1193.342506 C 1291.648598 1210.277946 1285.789375 1220.310789 1283.782791 1223.467791 C 1281.776208 1226.598038 1276.987163 1234.54405 1269.415655 1247.279072 C 1261.870902 1260.014095 1256.92133 1268.120632 1254.593694 1271.571931 C 1252.292811 1275.023229 1248.73447 1280.400833 1243.945425 1287.758251 C 1239.15638 1295.088916 1235.30374 1300.787571 1232.387505 1304.827462 C 1229.444517 1308.867354 1226.046702 1313.683119 1222.194062 1319.221248 C 1218.341422 1324.759378 1214.622555 1329.86944 1211.090968 1334.497925 C 1207.532627 1339.153164 1204.750165 1343.059284 1202.743582 1346.189532 C 1200.736999 1349.346533 1197.79401 1353.386425 1193.94137 1358.335961 C 1190.08873 1363.285497 1186.369862 1368.235033 1182.838276 1373.157815 C 1179.279935 1378.107351 1175.427295 1383.217412 1171.253602 1388.461245 C 1167.079909 1393.705078 1163.548322 1398.199792 1160.605333 1401.945387 C 1157.662344 1405.690982 1151.428559 1412.807612 1141.850468 1423.295278 C 1132.272378 1433.782943 1121.008757 1445.768847 1108.059606 1459.252989 C 1095.083701 1472.763884 1083.659554 1484.294966 1073.787164 1493.872987 C 1063.914774 1503.477762 1057.359936 1509.550977 1054.095893 1512.092631 C 1050.858606 1514.634284 1043.313853 1521.082058 1031.408125 1531.435953 C 1019.529152 1541.763093 1012.278698 1548.050342 1009.656763 1550.297699 C 1007.034827 1552.545055 1000.560252 1558.109939 990.206282 1566.938842 C 979.879067 1575.794498 973.083438 1581.466399 969.846151 1584.034807 C 966.582108 1586.57646 962.889995 1589.572936 958.716302 1593.024234 C 954.542609 1596.475533 948.763649 1601.18428 941.352668 1607.177232 C 933.941687 1613.170184 928.323254 1617.584635 924.44386 1620.44734 C 920.59122 1623.28329 916.899107 1625.824944 913.340766 1628.072301 C 909.782425 1630.319658 903.307849 1634.225778 893.890285 1639.763908 C 884.472721 1645.328792 878.319199 1649.074387 875.37621 1651.000692 C 872.433222 1652.953753 869.115671 1654.987076 865.423557 1657.073907 C 861.70469 1659.187493 857.85205 1661.568621 853.838883 1664.2708 C 849.825717 1666.972979 846.909482 1668.926039 845.036671 1670.129981 C 843.190615 1671.307168 839.177448 1673.420753 832.997172 1676.417229 C 826.84365 1679.413705 819.432669 1682.865003 810.790984 1686.744369 C 802.149298 1690.65049 796.129549 1693.192143 792.731734 1694.396085 L 787.621635 1696.188619 L 782.083466 1694.850907 C 778.364598 1693.941262 774.351431 1692.443024 770.043966 1690.356193 C 765.709746 1688.242607 758.459292 1684.657538 748.265849 1679.574231 C 738.072406 1674.464169 732.213183 1671.307168 730.68818 1670.129981 C 729.136422 1668.926039 725.203519 1666.304123 718.862716 1662.264231 C 712.548667 1658.197585 707.759621 1655.20111 704.522334 1653.274804 C 701.285046 1651.321743 694.944243 1647.576149 685.526679 1642.011265 C 676.109115 1636.473135 669.634539 1632.567015 666.076198 1630.319658 C 662.517857 1628.072301 658.825744 1625.530647 654.973104 1622.694697 C 651.120464 1619.831992 646.705981 1616.460957 641.783164 1612.581591 C 636.833592 1608.67547 630.278753 1603.351375 622.091893 1596.609304 C 613.905033 1589.867233 606.815106 1584.034807 600.795356 1579.085271 C 594.775606 1574.135735 585.973394 1566.644545 574.38872 1556.611701 C 562.830801 1546.552104 555.41982 1540.264855 552.182532 1537.723201 C 548.945244 1535.181548 541.828562 1529.161842 530.885995 1519.744346 C 519.916673 1510.300096 513.81666 1504.976 512.585956 1503.772059 C 511.355251 1502.568118 505.87059 1497.244022 496.158727 1487.826527 C 486.42011 1478.382277 479.624481 1471.640206 475.771841 1467.57356 C 471.919201 1463.533668 463.411288 1454.544241 450.301611 1440.605277 C 437.191934 1426.666313 429.326127 1418.131708 426.677437 1414.974706 C 424.055502 1411.844459 420.202862 1407.18922 415.119518 1401.035742 C 410.009419 1394.909019 405.996252 1389.959483 403.080018 1386.213888 C 400.137029 1382.468293 397.220795 1378.562173 394.277806 1374.522281 C 391.334817 1370.48239 388.258056 1366.281973 385.020769 1361.92103 C 381.783481 1357.586842 378.840492 1353.680721 376.218557 1350.229423 C 373.596621 1346.804879 371.349248 1343.728141 369.503191 1341.025961 C 367.657135 1338.323782 365.115463 1334.818976 361.851421 1330.458033 C 358.614133 1326.123845 355.831671 1322.217724 353.530789 1318.766426 C 351.203152 1315.315128 348.126391 1310.820414 344.273751 1305.282285 C 340.421111 1299.744155 337.478122 1295.383212 335.471539 1292.252965 C 333.464956 1289.095964 330.227668 1284.146428 325.759676 1277.404357 C 321.26493 1270.662286 318.348695 1266.033801 316.957464 1263.465393 C 315.566233 1260.923739 311.713593 1254.475965 305.37279 1244.148825 C 299.031987 1233.794931 294.885048 1227.05286 292.878465 1223.922613 C 290.871882 1220.765611 285.842046 1212.150743 277.815713 1198.051254 C 269.78938 1183.978519 263.76963 1173.330328 259.756464 1166.133435 C 255.743297 1158.936541 252.211711 1152.194471 249.108195 1145.907222 C 246.031434 1139.619974 241.697214 1130.175724 236.159045 1117.574472 C 230.59412 1104.999975 227.811658 1098.552201 227.811658 1098.257904 C 227.811658 1097.963608 225.029196 1091.061011 219.491026 1077.57687 C 213.926102 1064.092728 209.591882 1053.444537 206.515121 1045.65905 C 203.43836 1037.84681 199.10414 1026.021432 193.539216 1010.129408 C 188.001046 994.237384 182.436122 977.301944 176.871198 959.323088 C 171.333028 941.344233 165.152751 919.459257 158.357123 893.694915 C 151.561494 867.903819 146.772449 848.721022 144.016741 836.146525 C 141.234279 823.545274 137.354885 805.272122 132.432067 781.300314 C 127.482495 757.301753 124.566261 741.570254 123.629855 734.079064 C 122.693449 726.587875 120.686866 703.659483 117.610105 665.29389 C 114.533344 626.928296 112.526761 598.006953 111.590355 578.52986 C 110.65395 559.052766 109.583772 538.371732 108.353068 516.486756 C 107.122363 494.60178 105.410079 458.77784 103.269723 409.041691 C 101.102614 359.278788 100.005681 324.070196 100.005681 303.389161 L 100.005681 272.354232 L 103.028933 270.802486 C 105.035517 269.732316 110.520178 268.474866 119.456162 266.976628 C 128.4189 265.47839 140.752699 263.52533 156.511066 261.117447 C 172.242679 258.736319 196.161152 254.830199 228.266484 249.425841 C 260.371816 244.048236 283.380638 240.142116 297.266194 237.760988 C 311.15175 235.353105 329.532053 231.607511 352.380348 226.497449 C 375.228642 221.414142 394.973422 216.625131 411.64144 212.130417 C 428.309458 207.635703 442.676595 203.435286 454.716094 199.529166 C 466.755594 195.623045 476.146403 192.62657 482.942032 190.539738 C 489.737661 188.452907 496.212236 186.339321 502.392513 184.25249 C 508.572789 182.138904 520.906588 177.64419 539.447417 170.768348 C 557.961492 163.865752 575.325126 156.909647 591.538319 149.846525 C 607.724757 142.810158 616.393197 139.225088 617.463374 139.064563 C 618.533552 138.904037 626.34585 135.533002 640.846758 128.951456 C 655.347666 122.343157 668.484098 116.350205 680.202545 110.972601 C 691.920991 105.568243 703.505665 100.163884 714.929812 94.78628 C 726.35396 89.381922 740.560569 82.345554 757.522886 73.650423 L 782.993117 60.621104 Z M 789.012867 60.621104" stroke="#000" stroke-width="2"/></g><path transform="matrix(.146 0 0 .146 72.325 59.196)" fill="#FFBD59" fill-rule="evenodd" d="M 791.554539 125.553667 L 797.146217 125.553667 L 821.171708 137.646587 C 837.170865 145.699616 847.765625 150.970204 852.902478 153.458349 C 858.066085 155.973248 875.563491 164.079786 905.474959 177.83147 C 935.359673 191.583154 950.796987 198.512504 951.786901 198.646276 C 952.80357 198.806801 960.722885 202.070819 975.598356 208.438331 C 990.473827 214.832596 1001.924728 219.541344 1009.924307 222.618083 C 1017.923886 225.668067 1029.50856 229.84173 1044.678329 235.112317 C 1059.848099 240.382904 1069.42619 243.700431 1073.412602 245.091652 C 1077.425768 246.482873 1082.428849 248.168391 1088.448599 250.094697 C 1094.441594 252.047757 1102.173628 254.402131 1111.617947 257.184573 C 1121.035511 259.967015 1133.048256 263.284542 1147.656183 267.163908 C 1162.237354 271.070028 1176.390455 274.548081 1190.115485 277.598065 C 1203.840514 280.648049 1212.722989 282.60111 1216.709401 283.430491 C 1220.722568 284.259873 1233.457683 286.614247 1254.887992 290.493613 C 1276.345056 294.399733 1289.802541 296.754107 1295.233693 297.583489 C 1300.664845 298.412871 1313.961804 300.499702 1335.124569 303.843983 C 1356.287334 307.16151 1367.015865 308.820274 1367.310164 308.820274 C 1367.577709 308.820274 1377.878169 310.773334 1398.184792 314.6527 C 1418.491415 318.55882 1428.711612 320.565389 1428.872139 320.69916 L 1429.086174 320.913194 L 1427.775207 382.983052 C 1426.919065 424.345122 1424.778709 477.800112 1421.35414 543.321268 C 1417.929571 608.869178 1415.200618 654.672453 1413.194035 680.7846 C 1411.187452 706.869993 1408.913324 729.236545 1406.344897 747.830749 C 1403.749716 766.451706 1400.753219 784.082756 1397.32865 800.750653 C 1393.904081 817.391796 1390.185214 834.193465 1386.172047 851.128905 C 1382.15888 868.064344 1378.600539 882.939707 1375.443515 895.701484 C 1372.313245 908.490015 1368.594378 922.214945 1364.286912 936.929782 C 1360.006201 951.644619 1357.437775 960.553784 1356.581632 963.603768 C 1355.72549 966.653753 1354.414522 970.533119 1352.702238 975.268621 C 1350.989954 979.977369 1348.98337 985.809795 1346.709243 992.739146 C 1344.408361 999.69525 1340.85002 1009.70134 1335.980711 1022.730659 C 1331.111402 1035.786732 1327.12499 1046.194135 1323.967966 1053.979622 C 1320.810941 1061.765108 1316.958301 1071.048833 1312.383292 1081.884304 C 1307.808282 1092.719775 1301.949059 1105.775848 1294.805622 1121.052525 C 1287.635431 1136.302447 1283.35472 1145.184857 1281.936735 1147.699757 C 1280.491995 1150.187902 1275.274878 1159.284347 1266.258631 1174.989091 C 1257.242383 1190.667081 1251.811231 1199.97756 1249.965175 1202.893773 C 1248.092364 1205.809986 1243.677881 1213.167405 1236.668216 1224.966028 C 1229.658552 1236.764652 1225.083542 1244.255842 1222.943187 1247.466352 C 1220.802831 1250.650108 1217.512035 1255.653152 1213.070797 1262.448732 C 1208.629559 1269.244311 1205.071218 1274.514898 1202.342265 1278.287247 C 1199.613312 1282.032842 1196.483042 1286.474047 1192.897947 1291.610863 C 1189.339606 1296.747679 1185.888282 1301.456427 1182.597486 1305.763861 C 1179.333444 1310.071295 1176.738263 1313.683119 1174.892206 1316.599332 C 1173.019395 1319.515545 1170.317196 1323.26114 1166.732101 1327.836117 C 1163.17376 1332.437847 1159.722437 1337.012824 1156.43164 1341.587801 C 1153.140843 1346.162777 1149.582502 1350.898279 1145.703108 1355.740798 C 1141.850468 1360.610072 1138.559672 1364.783735 1135.857473 1368.235033 C 1133.12852 1371.713085 1127.34956 1378.321385 1118.467085 1388.033177 C 1109.611364 1397.74497 1099.177131 1408.847983 1087.164386 1421.342217 C 1075.15164 1433.836452 1064.556881 1444.538152 1055.406861 1453.420562 C 1046.256841 1462.302973 1040.183583 1467.921365 1037.160331 1470.302493 C 1034.163833 1472.656867 1027.154169 1478.623065 1016.158092 1488.201086 C 1005.135262 1497.779107 998.419896 1503.611534 995.985242 1505.698365 C 993.550588 1507.785197 987.557592 1512.922012 977.979501 1521.108813 C 968.374656 1529.295613 962.087362 1534.5662 959.090864 1536.947328 C 956.094367 1539.301702 952.643043 1542.084144 948.790404 1545.2679 C 944.937764 1548.451655 939.56012 1552.839352 932.710983 1558.377482 C 925.835091 1563.942366 920.617974 1568.035766 917.059633 1570.684436 C 913.474538 1573.306353 910.049969 1575.660727 906.759173 1577.747558 C 903.468376 1579.83439 897.448626 1583.446213 888.726678 1588.583029 C 880.004729 1593.719845 874.279278 1597.197897 871.577079 1598.990432 C 868.848126 1600.809721 865.771365 1602.682518 862.346796 1604.608824 C 858.922228 1606.561885 855.337132 1608.782487 851.618264 1611.297387 C 847.899397 1613.785532 845.197198 1615.578067 843.458159 1616.701745 C 841.745875 1617.798669 838.027007 1619.751729 832.328311 1622.534171 C 826.60286 1625.316613 819.726968 1628.500369 811.727389 1632.112193 C 803.727811 1635.724016 798.136132 1638.07839 795.005862 1639.202069 L 790.270325 1640.860832 L 785.133472 1639.603382 C 781.682149 1638.774001 777.963281 1637.38278 773.976869 1635.456474 C 769.963703 1633.503413 763.248337 1630.159132 753.804019 1625.450384 C 744.3597 1620.714882 738.928548 1617.798669 737.510563 1616.701745 C 736.065823 1615.578067 732.427218 1613.170184 726.567995 1609.424589 C 720.708772 1605.65224 716.267534 1602.896552 713.271037 1601.077263 C 710.274539 1599.284729 704.388562 1595.806676 695.666613 1590.669861 C 686.944664 1585.533045 680.951669 1581.921221 677.660872 1579.83439 C 674.370076 1577.747558 670.945507 1575.393184 667.360412 1572.744514 C 663.775316 1570.122597 659.708641 1566.99235 655.133631 1563.380526 C 650.558621 1559.768703 644.485362 1554.845921 636.913855 1548.612181 C 629.315593 1542.351687 622.734 1536.947328 617.169076 1532.345597 C 611.577397 1527.770621 603.444046 1520.84127 592.715514 1511.530791 C 581.986982 1502.220313 575.11109 1496.387886 572.114593 1494.033513 C 569.118095 1491.679139 562.536502 1486.114255 552.396568 1477.365615 C 542.229879 1468.616976 536.584691 1463.694194 535.43425 1462.59727 C 534.283809 1461.473591 529.227219 1456.550809 520.210972 1447.80217 C 511.194725 1439.05353 504.90743 1432.81979 501.322335 1429.047441 C 497.763994 1425.301846 489.898187 1416.981275 477.724916 1404.058972 C 465.578398 1391.163424 458.30119 1383.244167 455.866535 1380.327953 C 453.431881 1377.41174 449.846785 1373.104306 445.138003 1367.405651 C 440.402467 1361.73375 436.683599 1357.132019 433.9814 1353.680721 C 431.252447 1350.202669 428.550248 1346.590845 425.821295 1342.84525 C 423.119096 1339.099655 420.256371 1335.193535 417.259873 1331.180398 C 414.236621 1327.140506 411.534422 1323.528682 409.099768 1320.344927 C 406.665114 1317.161171 404.578267 1314.298466 402.865983 1311.810321 C 401.153698 1309.322176 398.799307 1306.058158 395.802809 1302.018266 C 392.779557 1298.005129 390.211131 1294.393305 388.070775 1291.182795 C 385.93042 1287.99904 383.067694 1283.825377 379.482599 1278.688561 C 375.924258 1273.551745 373.195305 1269.538608 371.349248 1266.622394 C 369.476437 1263.706181 366.479939 1259.131205 362.333001 1252.87071 C 358.186062 1246.610216 355.457109 1242.329536 354.172895 1239.948408 C 352.888682 1237.594034 349.330341 1231.627837 343.444363 1222.049815 C 337.58514 1212.471794 333.7325 1206.2113 331.886444 1203.295087 C 330.013633 1200.378873 325.35836 1192.406107 317.920624 1179.350034 C 310.482889 1166.29396 304.917965 1156.448396 301.199097 1149.786588 C 297.480229 1143.12478 294.189433 1136.864286 291.326707 1131.03186 C 288.463982 1125.199433 284.47757 1116.450794 279.313962 1104.785941 C 274.177109 1093.121088 271.608682 1087.154891 271.608682 1086.887348 C 271.608682 1086.619806 269.013501 1080.22554 263.876648 1067.731306 C 258.739795 1055.237072 254.726628 1045.364754 251.863903 1038.141106 C 249.001178 1030.944213 244.988011 1019.974971 239.851158 1005.260134 C 234.714305 990.518543 229.550697 974.840553 224.413844 958.172656 C 219.250236 941.531513 213.55154 921.251792 207.237491 897.360247 C 200.950197 873.495457 196.508959 855.730635 193.940533 844.065783 C 191.372106 832.40093 187.787011 815.46549 183.212001 793.232709 C 178.636991 771.026683 175.934792 756.445617 175.07865 749.516266 C 174.222508 742.560161 172.349697 721.317288 169.486971 685.787645 C 166.624246 650.231248 164.778189 623.450244 163.922047 605.391126 C 163.065905 587.332008 162.049236 568.175965 160.898795 547.922999 C 159.775108 527.643278 158.196596 494.468009 156.190013 448.370437 C 154.18343 402.272866 153.193515 369.632682 153.193515 350.47664 L 153.193515 321.742576 L 155.975977 320.271092 C 157.848788 319.307939 162.905378 318.130752 171.199256 316.739531 C 179.493133 315.348311 190.944035 313.555776 205.525207 311.335173 C 220.106379 309.11457 242.285812 305.502747 272.036753 300.499702 C 301.76094 295.496658 323.084232 291.884834 335.953119 289.664231 C 348.822007 287.443629 365.837833 283.965576 387.000597 279.256828 C 408.163362 274.521326 426.463402 270.080121 441.92747 265.933212 C 457.364784 261.759549 470.661743 257.880183 481.818345 254.26836 C 492.974948 250.656536 501.696897 247.874094 507.984191 245.921034 C 514.271486 243.994728 520.291235 242.041668 525.989932 240.088608 C 531.715383 238.162302 543.166285 233.988639 560.315883 227.594373 C 577.492236 221.226862 593.571656 214.752334 608.580899 208.251051 C 623.616896 201.723014 631.616475 198.378733 632.606389 198.244962 C 633.623058 198.111191 640.846758 194.980943 654.277489 188.880975 C 667.708219 182.754252 679.881491 177.216122 690.743795 172.213077 C 701.606099 167.210033 712.334631 162.206988 722.929391 157.203944 C 733.497396 152.227653 746.660582 145.699616 762.392195 137.646587 L 785.989614 125.553667 Z M 791.554539 125.553667" stroke="#000" stroke-width="2"/><path transform="matrix(.146 0 0 .146 72.325 59.196)" fill-rule="evenodd" d="M 789.681728 169.992475 L 794.845335 169.992475 L 817.131787 181.363031 C 831.980503 188.961237 841.799384 193.910773 846.561675 196.265147 C 851.35072 198.619521 867.590667 206.271237 895.308271 219.193539 C 923.025874 232.142596 937.339502 238.670632 938.275907 238.804404 C 939.212313 238.938175 946.569785 242.014913 960.348323 248.03462 C 974.153616 254.027571 984.77513 258.468777 992.186111 261.358236 C 999.623846 264.22094 1010.352378 268.153815 1024.425215 273.130105 C 1038.471298 278.079641 1047.353774 281.209889 1051.072641 282.520847 C 1054.791509 283.831805 1059.420028 285.410306 1065.011706 287.229595 C 1070.576631 289.048884 1077.746822 291.29624 1086.495525 293.891403 C 1095.244228 296.513319 1106.374076 299.643566 1119.911825 303.308898 C 1133.449573 306.974231 1146.55925 310.238249 1159.294366 313.100954 C 1172.029481 315.990412 1180.243095 317.809701 1183.961962 318.585575 C 1187.68083 319.388202 1199.47954 321.608805 1219.384846 325.274137 C 1239.263397 328.912715 1251.730968 331.133318 1256.787558 331.935945 C 1261.817393 332.711818 1274.151192 334.664878 1293.788953 337.82188 C 1313.39996 340.952127 1323.352613 342.503873 1323.620158 342.503873 C 1323.887702 342.503873 1333.439039 344.349917 1352.274167 348.015249 C 1371.109295 351.653827 1380.580368 353.553378 1380.71414 353.68715 L 1380.928176 353.874429 L 1379.724226 412.30571 C 1378.921593 451.259896 1376.941764 501.584639 1373.757985 563.253183 C 1370.574206 624.948482 1368.059289 668.076332 1366.186478 692.636732 C 1364.340421 717.223887 1362.22682 738.252727 1359.81892 755.776761 C 1357.437775 773.27404 1354.655312 789.888428 1351.471534 805.566418 C 1348.287755 821.244408 1344.836432 837.05617 1341.117564 853.001702 C 1337.425451 868.947235 1334.1079 882.939707 1331.191665 894.952365 C 1328.275431 906.991777 1324.824108 919.914079 1320.837696 933.77278 C 1316.851284 947.631481 1314.470138 956.005561 1313.667505 958.868266 C 1312.891626 961.757725 1311.687676 965.396303 1310.082409 969.837508 C 1308.503897 974.305468 1306.657841 979.790089 1304.517485 986.318126 C 1302.403884 992.846163 1299.086333 1002.263658 1294.564832 1014.543859 C 1290.070086 1026.824059 1286.351218 1036.642868 1283.434984 1043.946778 C 1280.518749 1051.277443 1276.933654 1060.026082 1272.706452 1070.219451 C 1268.452495 1080.41282 1263.021343 1092.693021 1256.386241 1107.086807 C 1249.751139 1121.453838 1245.764727 1129.827918 1244.453759 1132.182292 C 1243.116037 1134.536666 1238.273483 1143.098026 1229.926097 1157.866372 C 1221.57871 1172.634717 1216.52212 1181.383357 1214.809836 1184.139044 C 1213.070797 1186.867978 1208.977367 1193.797328 1202.476037 1204.900342 C 1195.974708 1216.030109 1191.720751 1223.066477 1189.740922 1226.089707 C 1187.734339 1229.086183 1184.684332 1233.794931 1180.590903 1240.189196 C 1176.470718 1246.610216 1173.153167 1251.559752 1170.63825 1255.091313 C 1168.123332 1258.622874 1165.207098 1262.796537 1161.889547 1267.639056 C 1158.571996 1272.481575 1155.388217 1276.92278 1152.33821 1280.962672 C 1149.288204 1285.029318 1146.907058 1288.427108 1145.168019 1291.156041 C 1143.455735 1293.911729 1140.940817 1297.44329 1137.623266 1301.750724 C 1134.305715 1306.058158 1131.121936 1310.365592 1128.07193 1314.69978 C 1125.021923 1319.007214 1121.704372 1323.44842 1118.119277 1328.023396 C 1114.534181 1332.598373 1111.484175 1336.531248 1108.969257 1339.795266 C 1106.454339 1343.059284 1101.076696 1349.26627 1092.863082 1358.416223 C 1084.622714 1367.566177 1074.937605 1378.000334 1063.807756 1389.772203 C 1052.677908 1401.544073 1042.859027 1411.603671 1034.351114 1419.977751 C 1025.869955 1428.325077 1020.251522 1433.622418 1017.442306 1435.843021 C 1014.659844 1438.063623 1008.158514 1443.682016 997.965071 1452.698198 C 987.744873 1461.714379 981.511088 1467.225755 979.263715 1469.178815 C 976.989587 1471.131875 971.424663 1475.974394 962.542188 1483.679618 C 953.659712 1491.384842 947.827244 1496.361132 945.044781 1498.581735 C 942.262319 1500.802338 939.078541 1503.424254 935.493445 1506.42073 C 931.90835 1509.417206 926.932023 1513.53736 920.564466 1518.781193 C 914.196908 1523.998272 909.354354 1527.850883 906.036803 1530.339029 C 902.719252 1532.827174 899.535473 1535.047776 896.485466 1537.000837 C 893.43546 1538.953897 887.870536 1542.351687 879.790694 1547.194206 C 871.684097 1552.036725 866.386717 1555.300743 863.8718 1557.013015 C 861.356882 1558.698533 858.494156 1560.464313 855.310378 1562.283602 C 852.126599 1564.129645 848.809048 1566.216477 845.357725 1568.570851 C 841.933156 1570.925225 839.391484 1572.610742 837.812972 1573.654158 C 836.207705 1574.697574 832.783136 1576.543617 827.459002 1579.165533 C 822.161622 1581.760696 815.794065 1584.783926 808.356329 1588.181715 C 800.945348 1591.579505 795.781741 1593.800108 792.838752 1594.843523 L 788.477778 1596.39527 L 783.688732 1595.218083 C 780.504953 1594.44221 777.080385 1593.131251 773.361517 1591.311963 C 769.642649 1589.465919 763.408864 1586.335672 754.660161 1581.894467 C 745.911458 1577.453261 740.854868 1574.697574 739.5439 1573.654158 C 738.206178 1572.610742 734.835118 1570.336631 729.377212 1566.80507 C 723.94606 1563.273509 719.85263 1560.651593 717.043413 1558.966075 C 714.260951 1557.253803 708.829799 1553.989785 700.749957 1549.147266 C 692.643361 1544.331501 687.078437 1540.933711 684.02843 1538.953897 C 680.978423 1537.000837 677.794645 1534.780234 674.477094 1532.292089 C 671.159543 1529.803944 667.387166 1526.88773 663.13321 1523.489941 C 658.906007 1520.092151 653.26082 1515.436912 646.224401 1509.550977 C 639.214737 1503.665042 633.114724 1498.581735 627.924362 1494.274301 C 622.760754 1489.966867 615.189247 1483.412076 605.263348 1474.663436 C 595.310695 1465.914797 588.943138 1460.430176 586.160675 1458.182819 C 583.378213 1455.962216 577.2782 1450.745137 567.860636 1442.504829 C 558.443072 1434.291274 553.199201 1429.636035 552.129023 1428.592619 C 551.0856 1427.549203 546.376818 1422.920718 538.002677 1414.680409 C 529.655291 1406.440101 523.822822 1400.554166 520.505271 1397.022605 C 517.18772 1393.491044 509.883757 1385.652049 498.620136 1373.50562 C 487.356515 1361.359191 480.587641 1353.894755 478.340268 1351.165822 C 476.06614 1348.410134 472.748589 1344.370243 468.387615 1338.992638 C 463.999886 1333.641789 460.548563 1329.334355 458.033645 1326.070336 C 455.518727 1322.806318 453.00381 1319.408528 450.488892 1315.876967 C 447.94722 1312.345406 445.29853 1308.680074 442.516068 1304.880971 C 439.733606 1301.108622 437.218688 1297.710832 434.971315 1294.687602 C 432.697187 1291.691126 430.770867 1289.015701 429.192355 1286.661327 C 427.587088 1284.306953 425.419978 1281.230215 422.637516 1277.457865 C 419.8283 1273.658762 417.447154 1270.260972 415.467325 1267.264496 C 413.460742 1264.241266 410.812052 1260.335146 407.494501 1255.492627 C 404.17695 1250.650108 401.662033 1246.851004 399.949748 1244.122071 C 398.210709 1241.366383 395.428247 1237.058949 391.602362 1231.173014 C 387.749722 1225.287079 385.234804 1221.247188 384.030854 1219.026585 C 382.826904 1216.805982 379.509353 1211.18759 374.078201 1202.171408 C 368.647049 1193.155226 365.061954 1187.269291 363.349669 1184.513604 C 361.610631 1181.78467 357.303165 1174.266726 350.400519 1161.986526 C 343.524627 1149.679571 338.334265 1140.422601 334.882941 1134.135352 C 331.431618 1127.874858 328.381612 1121.988923 325.732922 1116.504302 C 323.084232 1110.992927 319.365364 1102.779372 314.603073 1091.783376 C 309.814028 1080.814134 307.432882 1075.195742 307.432882 1074.928199 C 307.432882 1074.660657 305.051737 1068.667705 300.289446 1056.895835 C 295.5004 1045.123965 291.781533 1035.866995 289.132843 1029.071416 C 286.484153 1022.275837 282.765285 1011.948696 278.002994 998.089995 C 273.213949 984.231294 268.451658 969.462949 263.662613 953.784959 C 258.900322 938.106969 253.602942 919.004435 247.743719 896.530866 C 241.91125 874.057296 237.81782 857.33589 235.40992 846.339894 C 233.028775 835.370652 229.711224 819.425119 225.484022 798.503296 C 221.230065 777.608228 218.715147 763.883298 217.912514 757.355261 C 217.109881 750.80047 215.397596 730.815046 212.748907 697.34548 C 210.100217 663.902669 208.361178 638.673412 207.558544 621.684464 C 206.782666 604.695515 205.84626 586.663151 204.776082 567.587372 C 203.732659 548.484838 202.261165 517.262629 200.415108 473.867237 C 198.542297 430.471845 197.632646 399.757967 197.632646 381.725603 L 197.632646 354.677057 L 200.201073 353.31259 C 201.940111 352.376191 206.648893 351.279267 214.327419 349.968309 C 222.032698 348.657351 232.627458 346.971833 246.165207 344.885002 C 259.702955 342.771416 280.250368 339.373626 307.834199 334.664878 C 335.41803 329.982885 355.189564 326.585095 367.122046 324.471509 C 379.054528 322.384678 394.839649 319.12066 414.477411 314.679454 C 434.088418 310.238249 451.07749 306.064586 465.391117 302.131711 C 479.731499 298.225591 492.065297 294.560259 502.392513 291.162469 C 512.746482 287.76468 520.826324 285.142763 526.658793 283.323474 C 532.518016 281.477431 538.08294 279.658142 543.38032 277.838853 C 548.6777 275.99281 559.299214 272.08669 575.218108 266.066984 C 591.137002 260.047277 606.039227 253.974063 619.978292 247.820586 C 633.890603 241.693863 641.328338 238.563615 642.264744 238.429844 C 643.174395 238.296073 649.88976 235.353105 662.357331 229.600942 C 674.824901 223.848778 686.088522 218.6317 696.174947 213.922952 C 706.234618 209.214204 716.187271 204.505456 726.006152 199.796708 C 735.825033 195.08796 748.025059 188.961237 762.606231 181.363031 L 784.491366 169.992475 Z M 789.681728 169.992475" stroke="#000" stroke-width="2"/><g clip-path="url(#c)"><path fill="#FFF" d="M 187.726562 111.582031 C 188.621094 111.582031 189.351562 110.855469 189.351562 109.972656 L 189.351562 105.140625 C 189.351562 104.257812 188.621094 103.53125 187.726562 103.53125 C 186.835938 103.53125 186.105469 104.257812 186.105469 105.140625 L 186.105469 109.972656 C 186.105469 110.855469 186.835938 111.582031 187.726562 111.582031 Z M 187.726562 111.582031"/></g><path fill="#FFF" d="M 182.371094 111.902344 C 183.019531 111.257812 183.019531 110.292969 182.371094 109.648438 L 179.125 106.429688 C 178.476562 105.785156 177.5 105.785156 176.851562 106.429688 C 176.203125 107.074219 176.203125 108.039062 176.851562 108.683594 L 180.097656 111.902344 C 180.746094 112.546875 181.722656 112.546875 182.371094 111.902344 Z M 182.371094 111.902344"/><path fill="#FFF" d="M 193.082031 111.902344 C 193.40625 112.226562 193.8125 112.386719 194.21875 112.386719 C 194.625 112.386719 195.03125 112.226562 195.355469 111.902344 L 198.601562 108.683594 C 199.25 108.039062 199.25 107.074219 198.601562 106.429688 C 197.953125 105.785156 196.976562 105.785156 196.328125 106.429688 L 193.082031 109.648438 C 192.433594 110.292969 192.433594 111.257812 193.082031 111.902344 Z M 193.082031 111.902344"/><path fill="#FFF" d="M 172.390625 125.746094 C 172.226562 126.3125 172.390625 126.953125 172.792969 127.4375 L 179.042969 133.472656 L 177.582031 141.925781 C 177.5 142.488281 177.746094 143.132812 178.230469 143.535156 C 178.476562 143.777344 178.882812 143.855469 179.207031 143.855469 C 179.449219 143.855469 179.691406 143.777344 179.9375 143.695312 L 187.726562 139.671875 L 195.515625 143.695312 C 196.085938 144.019531 196.734375 143.9375 197.222656 143.535156 C 197.707031 143.214844 197.953125 142.570312 197.871094 141.925781 L 196.410156 133.472656 L 202.660156 127.4375 C 203.066406 127.035156 203.226562 126.390625 203.066406 125.746094 C 202.902344 125.105469 202.335938 124.699219 201.765625 124.621094 L 193.082031 123.414062 L 189.1875 115.6875 C 188.945312 115.125 188.375 114.800781 187.726562 114.800781 C 187.078125 114.800781 186.507812 115.125 186.265625 115.6875 L 182.371094 123.414062 L 173.6875 124.621094 C 173.121094 124.78125 172.550781 125.183594 172.390625 125.746094 Z M 172.390625 125.746094"/><path fill="#FFF" d="M 164.839844 129.371094 C 164.597656 128.804688 164.03125 128.484375 163.382812 128.484375 C 162.730469 128.484375 162.246094 128.804688 161.921875 129.371094 L 159.566406 133.957031 L 154.210938 134.679688 C 153.5625 134.761719 153.074219 135.164062 152.914062 135.808594 C 152.75 136.371094 152.914062 137.015625 153.316406 137.5 L 157.132812 141.039062 L 156.238281 146.03125 C 156.160156 146.59375 156.402344 147.238281 156.890625 147.640625 C 157.375 148.042969 158.023438 148.042969 158.59375 147.800781 L 163.382812 145.386719 L 168.167969 147.800781 C 168.414062 147.882812 168.65625 147.960938 168.898438 147.960938 C 169.222656 147.960938 169.546875 147.882812 169.875 147.640625 C 170.359375 147.238281 170.601562 146.675781 170.523438 146.03125 L 169.628906 141.039062 L 173.445312 137.5 C 173.929688 137.097656 174.09375 136.453125 173.851562 135.808594 C 173.6875 135.246094 173.121094 134.761719 172.550781 134.679688 L 167.195312 133.957031 Z M 164.839844 129.371094"/><g clip-path="url(#d)"><path fill="#FFF" d="M 138.953125 153.917969 C 139.441406 154.238281 140.089844 154.320312 140.65625 154.078125 L 143.902344 152.390625 L 147.152344 154.078125 C 147.394531 154.238281 147.636719 154.238281 147.878906 154.238281 C 148.207031 154.238281 148.53125 154.160156 148.855469 153.917969 C 149.339844 153.597656 149.585938 152.953125 149.503906 152.308594 L 148.855469 148.765625 L 151.453125 146.273438 C 151.9375 145.871094 152.101562 145.226562 151.855469 144.582031 C 151.613281 143.9375 151.125 143.535156 150.558594 143.453125 L 146.90625 142.972656 L 145.285156 139.753906 C 145.039062 139.1875 144.472656 138.867188 143.824219 138.867188 C 143.175781 138.867188 142.6875 139.1875 142.363281 139.753906 L 140.738281 142.972656 L 137.085938 143.453125 C 136.4375 143.535156 135.953125 143.9375 135.789062 144.582031 C 135.625 145.226562 135.789062 145.789062 136.195312 146.273438 L 138.792969 148.765625 L 138.140625 152.308594 C 138.222656 152.953125 138.46875 153.597656 138.953125 153.917969 Z M 138.953125 153.917969"/></g><path fill="#FFF" d="M 222.542969 135.726562 C 222.378906 135.164062 221.8125 134.679688 221.242188 134.601562 L 215.886719 133.875 L 213.535156 129.289062 C 213.289062 128.726562 212.722656 128.402344 212.074219 128.402344 C 211.421875 128.402344 210.9375 128.726562 210.613281 129.289062 L 208.257812 133.875 L 202.902344 134.601562 C 202.253906 134.679688 201.765625 135.085938 201.605469 135.726562 C 201.441406 136.292969 201.605469 136.933594 202.007812 137.417969 L 205.824219 140.960938 L 204.929688 145.949219 C 204.851562 146.511719 205.09375 147.15625 205.582031 147.558594 C 206.066406 147.960938 206.714844 147.960938 207.285156 147.71875 L 212.074219 145.304688 L 216.859375 147.71875 C 217.105469 147.800781 217.347656 147.882812 217.589844 147.882812 C 217.914062 147.882812 218.238281 147.800781 218.566406 147.558594 C 219.050781 147.15625 219.296875 146.59375 219.214844 145.949219 L 218.320312 140.960938 L 222.136719 137.417969 C 222.542969 137.015625 222.703125 136.371094 222.542969 135.726562 Z M 222.542969 135.726562"/><g clip-path="url(#e)"><path fill="#FFF" d="M 239.582031 144.664062 C 239.421875 144.097656 238.851562 143.617188 238.285156 143.535156 L 234.632812 143.050781 L 233.011719 139.832031 C 232.765625 139.269531 232.199219 138.949219 231.550781 138.949219 C 230.898438 138.949219 230.414062 139.269531 230.089844 139.832031 L 228.464844 143.050781 L 224.8125 143.535156 C 224.164062 143.617188 223.675781 144.019531 223.515625 144.664062 C 223.351562 145.304688 223.515625 145.871094 223.921875 146.351562 L 226.519531 148.847656 L 225.867188 152.390625 C 225.789062 152.953125 226.03125 153.597656 226.519531 154 C 227.003906 154.320312 227.652344 154.402344 228.222656 154.160156 L 231.46875 152.46875 L 234.714844 154.160156 C 234.957031 154.320312 235.199219 154.320312 235.445312 154.320312 C 235.769531 154.320312 236.09375 154.238281 236.417969 154 C 236.90625 153.675781 237.148438 153.03125 237.066406 152.390625 L 236.417969 148.847656 L 239.015625 146.351562 C 239.582031 145.871094 239.746094 145.226562 239.582031 144.664062 Z M 239.582031 144.664062"/></g><g clip-path="url(#f)"><path fill="#FFF" d="M 182.046875 188.046875 L 182.046875 192.070312 C 182.046875 192.953125 182.777344 193.679688 183.667969 193.679688 C 184.5625 193.679688 207.121094 193.679688 208.015625 193.679688 C 208.90625 193.679688 209.636719 192.953125 209.636719 192.070312 L 209.636719 188.046875 C 209.636719 186.675781 208.746094 185.46875 207.445312 184.988281 C 208.015625 182.652344 208.90625 177.902344 208.828125 172.671875 C 208.828125 172.511719 208.664062 165.589844 208.664062 165.589844 C 208.582031 162.609375 206.066406 160.195312 202.984375 160.195312 C 202.984375 160.195312 202.902344 160.195312 202.902344 160.195312 C 202.738281 160.195312 202.660156 160.195312 202.496094 160.195312 C 201.441406 158.828125 199.820312 157.941406 197.953125 157.941406 C 197.953125 157.941406 197.707031 157.941406 197.628906 157.941406 C 196.652344 156.65625 195.113281 155.769531 193.328125 155.6875 L 193.328125 151.019531 C 193.328125 151.019531 193.328125 151.019531 193.328125 150.941406 C 193.246094 147.71875 190.972656 145.386719 188.050781 145.386719 C 188.050781 145.386719 187.96875 145.386719 187.96875 145.386719 C 186.589844 145.386719 185.292969 145.949219 184.398438 146.914062 C 183.425781 147.960938 182.859375 149.410156 182.859375 151.019531 L 182.859375 163.496094 C 182.046875 163.175781 181.234375 163.011719 180.421875 163.011719 C 178.152344 163.011719 175.878906 164.300781 175.066406 166.472656 C 174.253906 168.726562 174.984375 171.464844 177.421875 174.84375 L 183.832031 185.226562 C 182.777344 185.710938 182.046875 186.757812 182.046875 188.046875 Z M 180.179688 172.992188 C 179.125 171.304688 176.285156 167.84375 179.125 166.472656 C 180.667969 165.75 182.207031 166.554688 183.34375 167.601562 C 183.832031 168.003906 184.238281 168.488281 184.644531 168.96875 C 185.128906 169.53125 186.105469 169.210938 186.105469 168.488281 L 186.105469 151.019531 C 186.105469 149.734375 186.753906 148.605469 188.050781 148.605469 C 189.351562 148.605469 190.082031 149.8125 190.082031 151.019531 L 190.082031 160.921875 C 190.082031 160.921875 190.082031 161.164062 190.082031 161.164062 C 190.082031 161.082031 190.082031 161.082031 190.160156 161 C 190.566406 159.953125 191.867188 159.070312 193 159.070312 C 194.300781 159.070312 195.355469 160.035156 195.4375 161.324219 L 195.4375 163.011719 C 195.4375 163.011719 195.4375 163.09375 195.4375 163.09375 C 195.4375 163.09375 195.4375 163.09375 195.515625 163.011719 C 195.761719 162.046875 196.734375 161.324219 197.789062 161.324219 C 199.089844 161.324219 200.144531 162.289062 200.222656 163.578125 L 200.386719 165.429688 C 200.386719 165.429688 200.386719 165.507812 200.46875 165.507812 C 200.46875 165.507812 200.46875 165.507812 200.46875 165.429688 C 200.628906 164.382812 201.605469 163.578125 202.820312 163.578125 C 204.121094 163.578125 205.175781 164.542969 205.253906 165.832031 L 205.582031 173.878906 L 205.582031 172.753906 C 205.660156 178.144531 204.605469 182.972656 204.199219 184.824219 L 187.402344 184.824219 C 187.402344 184.824219 180.179688 173.074219 180.179688 172.992188 Z M 180.179688 172.992188"/></g><g fill="#EF761E"><g><g><path d="M 2.453125 -22.265625 C 2.453125 -22.453125 2.507812 -22.613281 2.625 -22.75 C 2.75 -22.882812 2.921875 -22.953125 3.140625 -22.953125 L 7.71875 -22.953125 C 7.863281 -22.953125 8.019531 -22.890625 8.1875 -22.765625 C 8.363281 -22.640625 8.453125 -22.472656 8.453125 -22.265625 L 8.453125 -13.84375 C 9.578125 -15.289062 10.675781 -16.710938 11.75 -18.109375 C 12.832031 -19.515625 13.929688 -20.9375 15.046875 -22.375 C 15.160156 -22.550781 15.304688 -22.691406 15.484375 -22.796875 C 15.671875 -22.910156 15.851562 -22.96875 16.03125 -22.96875 L 21.890625 -22.96875 C 22.140625 -22.96875 22.265625 -22.890625 22.265625 -22.734375 C 22.265625 -22.628906 22.207031 -22.503906 22.09375 -22.359375 L 14.8125 -12.765625 L 22.875 -0.65625 C 22.988281 -0.476562 23.046875 -0.335938 23.046875 -0.234375 C 23.046875 -0.078125 22.929688 0 22.703125 0 L 16.859375 0 C 16.679688 0 16.507812 -0.0507812 16.34375 -0.15625 C 16.175781 -0.257812 16.035156 -0.398438 15.921875 -0.578125 C 15.367188 -1.316406 14.867188 -2.023438 14.421875 -2.703125 C 13.972656 -3.378906 13.535156 -4.054688 13.109375 -4.734375 C 12.691406 -5.410156 12.265625 -6.09375 11.828125 -6.78125 C 11.398438 -7.46875 10.929688 -8.195312 10.421875 -8.96875 L 8.453125 -6.703125 L 8.453125 -0.6875 C 8.453125 -0.226562 8.207031 0 7.71875 0 L 3.15625 0 C 2.6875 0 2.453125 -0.226562 2.453125 -0.6875 Z M 2.453125 -22.265625" transform="translate(137.66 234.937)"/></g></g></g><g fill="#EF761E"><g><g><path d="M 10.90625 -14.484375 L 14.65625 -22.46875 C 14.71875 -22.59375 14.765625 -22.679688 14.796875 -22.734375 C 14.835938 -22.796875 14.878906 -22.835938 14.921875 -22.859375 C 14.960938 -22.890625 15.003906 -22.90625 15.046875 -22.90625 C 15.097656 -22.914062 15.15625 -22.929688 15.21875 -22.953125 L 21.171875 -22.953125 C 21.242188 -22.953125 21.300781 -22.925781 21.34375 -22.875 C 21.394531 -22.832031 21.421875 -22.78125 21.421875 -22.71875 C 21.421875 -22.601562 21.347656 -22.472656 21.203125 -22.328125 L 13.875 -9.359375 L 13.875 -0.71875 C 13.875 -0.238281 13.640625 0 13.171875 0 L 8.53125 0 C 8.320312 0 8.160156 -0.0625 8.046875 -0.1875 C 7.929688 -0.320312 7.875 -0.5 7.875 -0.71875 L 7.875 -9.390625 L 0.578125 -22.328125 C 0.441406 -22.460938 0.375 -22.59375 0.375 -22.71875 C 0.375 -22.78125 0.394531 -22.832031 0.4375 -22.875 C 0.476562 -22.925781 0.535156 -22.953125 0.609375 -22.953125 L 6.546875 -22.953125 C 6.617188 -22.929688 6.675781 -22.914062 6.71875 -22.90625 C 6.757812 -22.90625 6.800781 -22.890625 6.84375 -22.859375 C 6.882812 -22.835938 6.925781 -22.796875 6.96875 -22.734375 C 7.007812 -22.679688 7.066406 -22.59375 7.140625 -22.46875 Z M 10.90625 -14.484375" transform="translate(162.828 234.937)"/></g></g></g><g fill="#EF761E"><g><g><path d="M 20 -21.28125 C 20.175781 -21.175781 20.300781 -21.039062 20.375 -20.875 C 20.457031 -20.707031 20.445312 -20.515625 20.34375 -20.296875 L 17.71875 -16.578125 C 17.613281 -16.398438 17.492188 -16.296875 17.359375 -16.265625 C 17.234375 -16.242188 17.078125 -16.289062 16.890625 -16.40625 C 16.390625 -16.789062 15.832031 -17.082031 15.21875 -17.28125 C 14.613281 -17.488281 13.972656 -17.59375 13.296875 -17.59375 C 12.441406 -17.59375 11.660156 -17.429688 10.953125 -17.109375 C 10.242188 -16.796875 9.628906 -16.359375 9.109375 -15.796875 C 8.597656 -15.242188 8.195312 -14.597656 7.90625 -13.859375 C 7.625 -13.117188 7.484375 -12.328125 7.484375 -11.484375 C 7.484375 -10.640625 7.625 -9.847656 7.90625 -9.109375 C 8.195312 -8.367188 8.597656 -7.722656 9.109375 -7.171875 C 9.628906 -6.617188 10.242188 -6.179688 10.953125 -5.859375 C 11.660156 -5.546875 12.441406 -5.390625 13.296875 -5.390625 C 13.972656 -5.390625 14.617188 -5.492188 15.234375 -5.703125 C 15.847656 -5.921875 16.410156 -6.21875 16.921875 -6.59375 C 17.109375 -6.707031 17.257812 -6.753906 17.375 -6.734375 C 17.5 -6.710938 17.625 -6.617188 17.75 -6.453125 L 20.390625 -2.65625 C 20.503906 -2.425781 20.519531 -2.234375 20.4375 -2.078125 C 20.363281 -1.929688 20.238281 -1.804688 20.0625 -1.703125 C 19.09375 -1.046875 18.046875 -0.539062 16.921875 -0.1875 C 15.804688 0.164062 14.628906 0.34375 13.390625 0.34375 C 12.304688 0.34375 11.257812 0.203125 10.25 -0.078125 C 9.25 -0.359375 8.3125 -0.753906 7.4375 -1.265625 C 6.5625 -1.785156 5.765625 -2.398438 5.046875 -3.109375 C 4.328125 -3.828125 3.707031 -4.617188 3.1875 -5.484375 C 2.675781 -6.359375 2.28125 -7.296875 2 -8.296875 C 1.726562 -9.304688 1.59375 -10.359375 1.59375 -11.453125 C 1.59375 -12.546875 1.726562 -13.59375 2 -14.59375 C 2.28125 -15.601562 2.675781 -16.546875 3.1875 -17.421875 C 3.707031 -18.304688 4.328125 -19.109375 5.046875 -19.828125 C 5.765625 -20.546875 6.5625 -21.160156 7.4375 -21.671875 C 8.3125 -22.179688 9.25 -22.578125 10.25 -22.859375 C 11.257812 -23.140625 12.304688 -23.28125 13.390625 -23.28125 C 14.628906 -23.28125 15.796875 -23.109375 16.890625 -22.765625 C 17.992188 -22.421875 19.03125 -21.925781 20 -21.28125 Z M 20 -21.28125" transform="translate(186.157 234.937)"/></g></g></g><g fill="#EF761E"><g><g><path d="M 2.46875 -22.234375 C 2.46875 -22.453125 2.523438 -22.625 2.640625 -22.75 C 2.765625 -22.882812 2.9375 -22.953125 3.15625 -22.953125 L 13.40625 -22.953125 C 14.3125 -22.953125 15.164062 -22.773438 15.96875 -22.421875 C 16.78125 -22.078125 17.484375 -21.601562 18.078125 -21 C 18.679688 -20.40625 19.160156 -19.703125 19.515625 -18.890625 C 19.867188 -18.078125 20.046875 -17.207031 20.046875 -16.28125 C 20.046875 -15.507812 19.921875 -14.789062 19.671875 -14.125 C 19.429688 -13.46875 19.09375 -12.875 18.65625 -12.34375 C 19.394531 -11.664062 19.976562 -10.859375 20.40625 -9.921875 C 20.84375 -8.984375 21.0625 -7.988281 21.0625 -6.9375 C 21.0625 -6 20.878906 -5.109375 20.515625 -4.265625 C 20.160156 -3.429688 19.675781 -2.695312 19.0625 -2.0625 C 18.445312 -1.425781 17.726562 -0.921875 16.90625 -0.546875 C 16.09375 -0.179688 15.234375 0 14.328125 0 L 3.15625 0 C 2.945312 0 2.78125 -0.0507812 2.65625 -0.15625 C 2.53125 -0.269531 2.46875 -0.441406 2.46875 -0.671875 Z M 14.921875 -7.171875 C 14.921875 -7.484375 14.863281 -7.789062 14.75 -8.09375 C 14.632812 -8.40625 14.46875 -8.679688 14.25 -8.921875 C 14.039062 -9.160156 13.789062 -9.359375 13.5 -9.515625 C 13.207031 -9.671875 12.890625 -9.75 12.546875 -9.75 L 8.46875 -9.75 L 8.46875 -4.59375 L 12.546875 -4.59375 C 12.890625 -4.59375 13.203125 -4.660156 13.484375 -4.796875 C 13.773438 -4.941406 14.03125 -5.132812 14.25 -5.375 C 14.46875 -5.625 14.632812 -5.898438 14.75 -6.203125 C 14.863281 -6.515625 14.921875 -6.835938 14.921875 -7.171875 Z M 14.109375 -16.15625 C 14.109375 -16.457031 14.050781 -16.742188 13.9375 -17.015625 C 13.820312 -17.285156 13.660156 -17.519531 13.453125 -17.71875 C 13.253906 -17.925781 13.007812 -18.085938 12.71875 -18.203125 C 12.425781 -18.328125 12.113281 -18.390625 11.78125 -18.390625 L 8.46875 -18.390625 L 8.46875 -13.90625 L 11.734375 -13.90625 C 12.078125 -13.90625 12.394531 -13.957031 12.6875 -14.0625 C 12.988281 -14.175781 13.238281 -14.332031 13.4375 -14.53125 C 13.644531 -14.726562 13.804688 -14.960938 13.921875 -15.234375 C 14.046875 -15.515625 14.109375 -15.820312 14.109375 -16.15625 Z M 14.109375 -16.15625" transform="translate(209.471 234.937)"/></g></g></g><g fill="#EF761E"><g><g><path d="M 2.109375 -4.453125 C 2.109375 -4.660156 2.160156 -4.820312 2.265625 -4.9375 C 2.378906 -5.0625 2.550781 -5.125 2.78125 -5.125 L 6.859375 -5.125 C 7.035156 -5.125 7.195312 -5.0625 7.34375 -4.9375 C 7.5 -4.820312 7.578125 -4.660156 7.578125 -4.453125 L 7.578125 -0.703125 C 7.578125 -0.523438 7.515625 -0.363281 7.390625 -0.21875 C 7.273438 -0.0703125 7.097656 0 6.859375 0 L 2.78125 0 C 2.332031 0 2.109375 -0.234375 2.109375 -0.703125 Z M 2.109375 -4.453125" transform="translate(232.801 234.937)"/></g></g></g><g fill="#FFF"><g><g><path d="M 3.785156 -2.617188 C 2.410156 -2.617188 1.445312 -3.511719 1.445312 -3.511719 L 0.136719 -1.445312 C 0.136719 -1.445312 1.375 0.207031 4.40625 0.207031 C 6.816406 0.207031 8.328125 -1.308594 8.328125 -2.890625 C 8.328125 -5.921875 4.613281 -5.921875 4.613281 -6.609375 C 4.613281 -6.816406 4.820312 -7.023438 5.164062 -7.023438 C 6.125 -7.023438 6.953125 -6.265625 6.953125 -6.265625 L 8.261719 -8.328125 C 8.261719 -8.328125 7.023438 -9.84375 4.542969 -9.84375 C 2.132812 -9.84375 0.621094 -8.328125 0.621094 -6.746094 C 0.621094 -3.71875 4.335938 -3.71875 4.335938 -3.027344 C 4.335938 -2.824219 4.128906 -2.617188 3.785156 -2.617188 Z M 3.785156 -2.617188" transform="translate(160.222 256.84)"/></g></g></g><g fill="#FFF"><g><g><path d="M 0.550781 -4.820312 C 0.550781 -1.996094 2.753906 0.207031 5.644531 0.207031 C 8.261719 0.207031 9.5 -1.308594 9.5 -1.308594 L 7.847656 -3.921875 C 7.847656 -3.921875 7.023438 -3.167969 6.058594 -3.167969 C 5.09375 -3.167969 4.40625 -3.855469 4.40625 -4.820312 C 4.40625 -5.78125 5.09375 -6.472656 6.058594 -6.472656 C 7.023438 -6.472656 7.847656 -5.714844 7.847656 -5.714844 L 9.5 -8.328125 C 9.5 -8.328125 8.261719 -9.84375 5.644531 -9.84375 C 2.753906 -9.84375 0.550781 -7.640625 0.550781 -4.820312 Z M 0.550781 -4.820312" transform="translate(170.204 256.84)"/></g></g></g><g fill="#FFF"><g><g><path d="M 7.433594 -4.820312 C 7.433594 -3.855469 6.746094 -3.167969 5.921875 -3.167969 C 5.09375 -3.167969 4.40625 -3.855469 4.40625 -4.820312 C 4.40625 -5.78125 5.09375 -6.472656 5.921875 -6.472656 C 6.746094 -6.472656 7.433594 -5.78125 7.433594 -4.820312 Z M 11.289062 -4.820312 C 11.289062 -7.640625 9.085938 -9.84375 5.921875 -9.84375 C 2.753906 -9.84375 0.550781 -7.640625 0.550781 -4.820312 C 0.550781 -1.996094 2.753906 0.207031 5.921875 0.207031 C 9.085938 0.207031 11.289062 -1.996094 11.289062 -4.820312 Z M 11.289062 -4.820312" transform="translate(181.356 256.84)"/></g></g></g><g fill="#FFF"><g><g><path d="M 10.324219 0 L 7.984375 -3.71875 C 7.984375 -3.71875 9.222656 -4.40625 9.222656 -6.402344 C 9.222656 -8.398438 7.847656 -9.773438 4.820312 -9.773438 C 2.753906 -9.773438 0.824219 -9.636719 0.824219 -9.636719 L 0.824219 0 L 4.40625 0 L 4.40625 -3.167969 L 4.542969 -3.167969 L 6.195312 0 Z M 4.40625 -5.644531 L 4.40625 -7.160156 L 4.820312 -7.160156 C 5.300781 -7.160156 5.644531 -6.816406 5.644531 -6.402344 C 5.644531 -5.988281 5.300781 -5.644531 4.820312 -5.644531 Z M 4.40625 -5.644531" transform="translate(194.573 256.84)"/></g></g></g><g fill="#FFF"><g><g><path d="M 4.40625 -3.441406 L 7.984375 -3.441406 L 7.984375 -6.195312 L 4.40625 -6.195312 L 4.40625 -6.882812 L 8.261719 -6.882812 L 8.261719 -9.636719 L 0.824219 -9.636719 L 0.824219 0 L 8.535156 0 L 8.535156 -2.753906 L 4.40625 -2.753906 Z M 4.40625 -3.441406" transform="translate(206 256.84)"/></g></g></g></svg>